inDegrees=no
num_controls=7
num_derivatives=13
num_iterations=163
num_multipliers=7
num_parameters=0
num_slacks=7
num_states=26
objective=6.213664
objective_accelerations=0.534169
objective_balance=0.035707
objective_effort=0.487867
objective_height=5.035759
objective_ligament=0.120163
solver_duration=1484.241980
status=Solve_Succeeded
success=true
DataType=double
version=3
OpenSimVersion=4.4-2022-07-23-0e9fedc
endheader
time	/jointset/ground_pelvis/pelvis_tilt/value	/jointset/ground_pelvis/pelvis_tx/value	/jointset/ground_pelvis/pelvis_ty/value	/jointset/hip_r/hip_flexion_r/value	/jointset/hip_r/hip_adduction_r/value	/jointset/hip_r/hip_rotation_r/value	/jointset/back/lumbar_extension/value	/jointset/patellofemoral_r/patellar_flexion_r/value	/jointset/knee_r/knee_flexion_r/value	/jointset/knee_r/knee_adduction_r/value	/jointset/knee_r/knee_rotation_r/value	/jointset/ankle_r/ankle_angle_r/value	/jointset/subtalar_r/subtalar_angle_r/value	/jointset/ground_pelvis/pelvis_tilt/speed	/jointset/ground_pelvis/pelvis_tx/speed	/jointset/ground_pelvis/pelvis_ty/speed	/jointset/hip_r/hip_flexion_r/speed	/jointset/hip_r/hip_adduction_r/speed	/jointset/hip_r/hip_rotation_r/speed	/jointset/back/lumbar_extension/speed	/jointset/patellofemoral_r/patellar_flexion_r/speed	/jointset/knee_r/knee_flexion_r/speed	/jointset/knee_r/knee_adduction_r/speed	/jointset/knee_r/knee_rotation_r/speed	/jointset/ankle_r/ankle_angle_r/speed	/jointset/subtalar_r/subtalar_angle_r/speed	/forceset/tau_hip_flexion_r	/forceset/tau_hip_adduction_r	/forceset/tau_hip_rotation_r	/forceset/tau_knee_flexion_r	/forceset/tau_ankle_angle_r	/forceset/tau_subtalar_angle_r	/forceset/tau_lumbar_extension	lambda_cid13_p0	lambda_cid14_p0	lambda_cid14_p1	lambda_cid14_p2	lambda_cid14_p3	lambda_cid14_p4	lambda_cid14_p5	/jointset/ground_pelvis/pelvis_tilt/accel	/jointset/ground_pelvis/pelvis_tx/accel	/jointset/ground_pelvis/pelvis_ty/accel	/jointset/hip_r/hip_flexion_r/accel	/jointset/hip_r/hip_adduction_r/accel	/jointset/hip_r/hip_rotation_r/accel	/jointset/back/lumbar_extension/accel	/jointset/patellofemoral_r/patellar_flexion_r/accel	/jointset/knee_r/knee_flexion_r/accel	/jointset/knee_r/knee_adduction_r/accel	/jointset/knee_r/knee_rotation_r/accel	/jointset/ankle_r/ankle_angle_r/accel	/jointset/subtalar_r/subtalar_angle_r/accel	gamma_cid13_p0	gamma_cid14_p0	gamma_cid14_p1	gamma_cid14_p2	gamma_cid14_p3	gamma_cid14_p4	gamma_cid14_p5
1.5	-0.1496137752492848	0.04245762694538897	0.8509255139401855	0.7811962111958517	-0.2365007777244232	-0.1175046179894577	-0.2880896043267291	0.7217055598962769	0.7217055598962804	0.05436723682658311	0.1745323615098145	0.2594878246319495	0.04664221867751214	0.3370985230896758	0.1557937066421382	0.4111910402414977	-1.760222360330379	0.04056900766713399	-0.3860789908771237	0.6990164741563901	-1.957101552979881	-1.957101552979884	0.1950685555925521	5.302416429905267e-06	-0.620430734969198	-0.1134072042109988	-0.09212173819303286	-0.01981890741780575	0.01042207087965923	-0.3345566590797934	0.0696253616528089	-0.01054085522929892	0.1402142757054168	-30.08326919825589	-18.88626604675775	-3.954672964545902	-3.398632594590821	0.992118164626633	-654.9323680201127	58.4571691514273	0.1895421715147404	0.3862243913046374	-0.5523088553248009	-0.8794307183302129	0.03954415205415022	-0.2687726570373277	1.372837715312754	-1.085036216232874	-1.085036216232876	0.6522738796314134	-0.02024536234546933	-0.5067429514354814	-0.02770664905293042	1.415666307889455e-07	1.155394191534008e-07	-1.187840040267831e-06	8.998746470608805e-07	6.064421479049767e-08	1.985073267098856e-07	-9.470643114579757e-07
1.51	-0.1462336550879305	0.04403466266860027	0.8550089612572118	0.7635519946860577	-0.2360938767894109	-0.1213789655144393	-0.2810319813416942	0.7020827955364191	0.7020827955364075	0.05635175268588064	0.1745324513815718	0.2532587586926746	0.04550590025760168	0.3388750820791641	0.1595888648240305	0.4054127458396761	-1.768378580510373	0.04080545835156003	-0.3887792912743344	0.7124033452722247	-1.967174606181459	-1.967174606181448	0.2018215966127041	9.223959471483763e-06	-0.6252925044975639	-0.1138389976319889	-0.08585274538628565	-0.02148496925515678	0.00980785216653866	-0.3309463908351057	0.07312849702069749	-0.01155550103448409	0.1344822693634512	-31.21881834324928	-17.60537846250079	-4.071766474491828	-3.493380940789007	0.5775008852086843	-651.1008215252953	58.31101849208022	0.1641602109311458	0.3724886717346986	-0.6033960700114583	-0.7473485950488056	0.01487436179461508	-0.2687576919280135	1.305895172785195	-0.9269641384770726	-0.9269641384749915	0.6847202485604156	0.01036152023879781	-0.4623718682566718	-0.04838577688812182	1.510531705548576e-07	1.230339917953298e-07	-1.274340892332919e-06	9.515166622307172e-07	6.390263808579964e-08	2.168545128077699e-07	-1.01598701838193e-06
1.52	-0.1428372798470275	0.04564891540165111	0.8590320643627397	0.745833489789021	-0.2356847755805125	-0.1252799358355736	-0.2738436329728883	0.6823675957912698	0.6823675957912492	0.05840337916245018	0.1745325105902878	0.2469837794751726	0.04436576988582854	0.3403495389992682	0.163237108610044	0.3991221979417977	-1.775080037778958	0.04100906244229211	-0.3914035501061487	0.7251615509107164	-1.97558863003731	-1.975588630037285	0.2084906790469856	-8.301930936831574e-07	-0.6296133906147093	-0.1141695945836224	-0.07958375257955005	-0.02315103109251094	0.009193633453494719	-0.3273361225904235	0.07663163238858418	-0.01257014683967598	0.128750263021476	-32.33608947683208	-16.32844637678911	-4.185674364347056	-3.593067528208807	0.1505836212810534	-647.3427798535724	58.22677854517269	0.1291217576377961	0.3568415121289719	-0.6547595545361683	-0.588478136048266	0.03297483331533278	-0.2535643439579764	1.247104619844085	-0.753230347087409	-0.7532303470874089	0.6354821624573934	-0.02304050146681922	-0.3985662691912313	-0.007467355181631485	1.601313151956459e-07	1.254868449678776e-07	-1.36403881653298e-06	9.866797969256812e-07	7.252816312763658e-08	2.212736740880772e-07	-1.080195528405709e-06
1.53	-0.1394277924010237	0.04729886775463819	0.8629897344803182	0.7280554761046305	-0.2352738592783659	-0.1292068749440368	-0.2665308568277965	0.6625767476401379	0.6625767476401195	0.06052128324254993	0.1745325496494486	0.2406683577369883	0.04322279107745722	0.3414963945688448	0.1667235621806309	0.3923324861931538	-1.780270598789286	0.04116775854976325	-0.3939688088204287	0.7372728273511008	-1.982290708983058	-1.982290708983051	0.2150751994530331	5.063498418893103e-06	-0.6333754419558932	-0.1144088462392098	-0.07320851419887986	-0.02494792676010797	0.008563931937839275	-0.3239072371490031	0.0803103935737863	-0.01371180820718801	0.122938207410338	-33.42238364630827	-15.01289569783775	-4.353905544447817	-3.677328292799998	-0.2631870791334552	-643.7555735456881	58.09138045014063	0.09974632937472266	0.3400962141519073	-0.7029368246123981	-0.4465151836473194	0.006372413708736258	-0.2554534233536786	1.175011542471834	-0.5851876679200726	-0.5851876679227597	0.6675279507373219	0.01204314297681563	-0.3506649564337215	-0.0296735055993235	1.687755400159904e-07	1.225828712042079e-07	-1.457133629876453e-06	1.004334121116093e-06	8.685623377516689e-08	2.108943089997094e-07	-1.139395204223051e-06
1.54	-0.1360083806247713	0.04898279443025676	0.8668771355124935	0.7102331227901131	-0.2348615449322832	-0.1331589559972898	-0.2591005934410344	0.6427275804996233	0.6427275804996135	0.06270455072091893	0.1745325754132417	0.2343181874074222	0.04207791586556003	0.3423344050487115	0.1700319731363416	0.3850683808611293	-1.783947963804502	0.04128867122705885	-0.3964319390623367	0.7486589992449363	-1.987252427912867	-1.987252427912879	0.2215633587014324	-3.489269407238236e-06	-0.6365631088911459	-0.114548875288879	-0.0668332758182227	-0.02674482242771257	0.007934230422273132	-0.3204783517075891	0.08398915475898518	-0.01485346957471309	0.1171261517991901	-34.4718320635405	-13.70509059946765	-4.519173473041528	-3.766995899046032	-0.6802556841880665	-640.3005452205265	58.02682103391714	0.0673527396956782	0.3212329891538004	-0.7496382712122988	-0.2858389370257067	0.02541814728019782	-0.2331386494835187	1.102083710534178	-0.4051583438995534	-0.4051583438995567	0.6162099309278348	-0.02592979333455418	-0.2836893880048552	0.01237716600199265	1.777913725264077e-07	1.216036252269742e-07	-1.554224606442715e-06	1.026159505076658e-06	9.895881693578683e-08	2.08107128085053e-07	-1.201372506146973e-06
